<svg width="83" height="27" viewBox="0 0 83 27" fill="none" xmlns="http://www.w3.org/2000/svg">
<path d="M82.9 13.2006H79.7C77.6 13.2006 76.5 14.7006 76.5 17.3006V26.6006H70.4V13.2006H67.8C65.7 13.2006 64.6 14.7006 64.6 17.3006V26.6006H58.5V8.20059H64.6V11.0006C65.6 8.80059 67 8.20059 69 8.20059H76.4V11.0006C77.4 8.80059 78.8 8.20059 80.8 8.20059H82.8V13.2006H82.9ZM57.3 18.8006H44.7C45 20.9006 46.3 22.0006 48.5 22.0006C50.1 22.0006 51.3 21.3006 51.6 20.2006L57 21.7006C55.7 24.9006 52.4 26.8006 48.5 26.8006C41.9 26.8006 38.9 21.7006 38.9 17.3006C38.9 13.0006 41.5 7.90059 48.1 7.90059C55.1 7.90059 57.4 13.1006 57.4 17.0006C57.4 17.9006 57.4 18.4006 57.3 18.8006ZM51.4 15.3006C51.3 13.7006 50.1 12.3006 48.1 12.3006C46.2 12.3006 45 13.1006 44.7 15.3006H51.4ZM28.3 26.6006H33.6L40.3 8.30059H34.2L31 19.0006L27.6 8.20059H21.5L28.3 26.6006ZM3.4 26.6006H9.4V13.2006H15.1V26.6006H21.1V8.20059H9.5V7.10059C9.5 5.90059 10.4 5.10059 11.8 5.10059H15.3V0.100586H10.9C6.4 0.100586 3.4 2.80059 3.4 6.70059V8.20059H0V13.2006H3.4V26.6006Z" fill="#7A7D85"/>
</svg>
